<?xml version="1.0" encoding="UTF-8" standalone="no"?>
<svg
   version="1.1"
   width="1024px"
   height="1024px"
   style="shape-rendering:geometricPrecision; text-rendering:geometricPrecision; image-rendering:optimizeQuality; fill-rule:evenodd; clip-rule:evenodd"
   id="svg56"
   sodipodi:docname="robot_template.svg"
   inkscape:version="1.4.2 (2aeb623e1d, 2025-05-12)"
   inkscape:export-filename="../96d6e65/robot_2.png"
   inkscape:export-xdpi="96"
   inkscape:export-ydpi="96"
   xmlns:inkscape="http://www.inkscape.org/namespaces/inkscape"
   xmlns:sodipodi="http://sodipodi.sourceforge.net/DTD/sodipodi-0.dtd"
   xmlns="http://www.w3.org/2000/svg"
   xmlns:svg="http://www.w3.org/2000/svg">
  <defs
     id="defs56" />
  <sodipodi:namedview
     id="namedview56"
     pagecolor="#ffffff"
     bordercolor="#000000"
     borderopacity="0.25"
     inkscape:showpageshadow="2"
     inkscape:pageopacity="0.0"
     inkscape:pagecheckerboard="0"
     inkscape:deskcolor="#d1d1d1"
     inkscape:zoom="0.33427239"
     inkscape:cx="-285.69515"
     inkscape:cy="396.38332"
     inkscape:window-width="1366"
     inkscape:window-height="699"
     inkscape:window-x="0"
     inkscape:window-y="0"
     inkscape:window-maximized="1"
     inkscape:current-layer="svg56" />
  <rect
     style="clip-rule:evenodd;fill:#ffffff;fill-opacity:1;fill-rule:evenodd;stroke-width:1.36345;image-rendering:optimizeQuality;shape-rendering:geometricPrecision;text-rendering:geometricPrecision"
     id="rect56"
     width="816.52936"
     height="816.52936"
     x="103.6527"
     y="103.65269"
     ry="0"
     inkscape:export-filename="../e58a8d34/robot_5.png"
     inkscape:export-xdpi="96"
     inkscape:export-ydpi="96" />
  <g
     id="g1" />
  <path
     fill="#3b4d52"
     d="m 498.5,154.5 c 0,15 0,30 0,45 6.66667,0 13.33333,0 20,0 0,-15 0,-30 0,-45 1.00644,14.97507 1.32558,29.9951 1,45 5.33333,0 10.66667,0 16,0 0,8.66667 0,17.33333 0,26 26.33613,-0.32898 52.68082,-0.004 79,1 -69,0 -138,0 -207,0 24.318,-1.0046 48.66364,-1.32882 73,-1 0,-8.66667 0,-17.33333 0,-26 5.66667,0 11.33333,0 17,0 -0.32558,-15.00492 -0.006,-30.0249 1,-45 z"
     id="path3" />
  <g
     id="g5">
    <path
       style="opacity:1"
       fill="#d4b659"
       d="M 588.5,278.5 C 571.5,278.5 554.5,278.5 537.5,278.5C 537.5,287.167 537.5,295.833 537.5,304.5C 537.5,313.167 537.5,321.833 537.5,330.5C 537.167,330.5 536.833,330.5 536.5,330.5C 536.5,312.833 536.5,295.167 536.5,277.5C 554.008,277.17 571.341,277.503 588.5,278.5 Z"
       id="path5" />
  </g>
  <g
     id="g8">
    <path
       style="opacity:1"
       fill="#2c3e49"
       d="M 383.5,278.5 C 391.5,278.5 399.5,278.5 407.5,278.5C 407.5,296.167 407.5,313.833 407.5,331.5C 399.5,331.5 391.5,331.5 383.5,331.5C 383.5,313.833 383.5,296.167 383.5,278.5 Z"
       id="path8" />
  </g>
  <g
     id="g11">
    <path
       style="opacity:1"
       fill="#2b3d47"
       d="M 614.5,278.5 C 622.833,278.5 631.167,278.5 639.5,278.5C 639.5,296.167 639.5,313.833 639.5,331.5C 631.167,331.5 622.833,331.5 614.5,331.5C 614.5,313.833 614.5,296.167 614.5,278.5 Z"
       id="path11" />
  </g>
  <g
     id="g12" />
  <g
     id="g14">
    <path
       style="opacity:1"
       fill="#c9b05d"
       d="M 433.5,329.5 C 442.167,329.5 450.833,329.5 459.5,329.5C 459.5,329.833 459.5,330.167 459.5,330.5C 459.5,339.167 459.5,347.833 459.5,356.5C 458.507,348.016 458.174,339.349 458.5,330.5C 449.983,330.826 441.65,330.493 433.5,329.5 Z"
       id="path14" />
  </g>
  <g
     id="g17">
    <path
       style="opacity:1"
       fill="#2c3f49"
       d="M 456.5,381.5 C 492.167,381.5 527.833,381.5 563.5,381.5C 563.5,390.167 563.5,398.833 563.5,407.5C 527.833,407.5 492.167,407.5 456.5,407.5C 456.5,398.833 456.5,390.167 456.5,381.5 Z"
       id="path17" />
  </g>
  <g
     id="g18">
    <path
       style="opacity:1"
       fill="#b89e26"
       d="M 380.5,408.5 C 380.5,408.167 380.5,407.833 380.5,407.5C 405.5,407.5 430.5,407.5 455.5,407.5C 455.833,407.5 456.167,407.5 456.5,407.5C 492.167,407.5 527.833,407.5 563.5,407.5C 563.833,407.5 564.167,407.5 564.5,407.5C 590.833,407.5 617.167,407.5 643.5,407.5C 643.5,416.167 643.5,424.833 643.5,433.5C 642.507,425.35 642.174,417.017 642.5,408.5C 555.167,408.5 467.833,408.5 380.5,408.5 Z"
       id="path18" />
  </g>
  <g
     id="g22"
     style="fill:#323232;fill-opacity:1">
    <g
       id="g58"
       style="fill:#323232;fill-opacity:1">
      <g
         id="g4"
         style="shape-rendering:geometricPrecision;text-rendering:geometricPrecision;image-rendering:optimizeQuality;fill-rule:evenodd;clip-rule:evenodd;fill:#323232;fill-opacity:1">
        <path
           style="opacity:1;fill:#323232;fill-opacity:1"
           fill="#fdc429"
           d="M 407.5,226.5 C 476.5,226.5 545.5,226.5 614.5,226.5C 614.5,243.833 614.5,261.167 614.5,278.5C 614.5,296.167 614.5,313.833 614.5,331.5C 614.5,348.167 614.5,364.833 614.5,381.5C 597.5,381.5 580.5,381.5 563.5,381.5C 527.833,381.5 492.167,381.5 456.5,381.5C 440.167,381.5 423.833,381.5 407.5,381.5C 407.5,365.167 407.5,348.833 407.5,332.5C 407.5,332.167 407.5,331.833 407.5,331.5C 407.5,313.833 407.5,296.167 407.5,278.5C 407.5,261.167 407.5,243.833 407.5,226.5 Z"
           id="path4" />
      </g>
      <path
         style="opacity:1;fill:#323232;fill-opacity:1"
         fill="#fec429"
         d="M 380.5,433.5 C 467.167,433.5 553.833,433.5 640.5,433.5C 640.333,485.501 640.5,537.501 641,589.5C 641.183,592.365 641.683,595.031 642.5,597.5C 642.635,603.181 642.968,608.848 643.5,614.5C 634.833,614.5 626.167,614.5 617.5,614.5C 538.496,614.702 459.496,614.369 380.5,613.5C 380.5,604.833 380.5,596.167 380.5,587.5C 380.5,536.167 380.5,484.833 380.5,433.5 Z"
         id="path22" />
    </g>
  </g>
  <g
     id="g23">
    <path
       style="opacity:1"
       fill="#6887a6"
       d="M 458.5,458.5 C 476.167,458.5 493.833,458.5 511.5,458.5C 511.5,466.833 511.5,475.167 511.5,483.5C 493.833,483.5 476.167,483.5 458.5,483.5C 458.5,475.167 458.5,466.833 458.5,458.5 Z"
       id="path23" />
  </g>
  <g
     id="g24">
    <path
       style="opacity:1"
       fill="#ddf1fe"
       d="M 511.5,458.5 C 519.833,458.5 528.167,458.5 536.5,458.5C 536.5,466.833 536.5,475.167 536.5,483.5C 528.167,483.5 519.833,483.5 511.5,483.5C 511.5,475.167 511.5,466.833 511.5,458.5 Z"
       id="path24" />
  </g>
  <g
     id="g25">
    <path
       style="opacity:1"
       fill="#d9eaf0"
       d="M 458.5,458.5 C 458.5,466.833 458.5,475.167 458.5,483.5C 476.167,483.5 493.833,483.5 511.5,483.5C 519.833,483.5 528.167,483.5 536.5,483.5C 502.337,484.498 468.004,484.832 433.5,484.5C 433.5,475.833 433.5,467.167 433.5,458.5C 441.833,458.5 450.167,458.5 458.5,458.5 Z"
       id="path25" />
  </g>
  <g
     id="g26">
    <path
       style="opacity:1"
       fill="#2c3d48"
       d="M 668.5,458.5 C 676.5,458.5 684.5,458.5 692.5,458.5C 692.5,466.5 692.5,474.5 692.5,482.5C 692.174,491.349 692.507,500.016 693.5,508.5C 693.5,508.833 693.5,509.167 693.5,509.5C 685.167,509.5 676.833,509.5 668.5,509.5C 668.5,492.5 668.5,475.5 668.5,458.5 Z"
       id="path26" />
  </g>
  <g
     id="g27">
    <path
       style="opacity:1"
       fill="#9a894b"
       d="M 589.5,458.5 C 597.984,457.507 606.651,457.174 615.5,457.5C 615.5,483.833 615.5,510.167 615.5,536.5C 606.833,536.5 598.167,536.5 589.5,536.5C 589.5,536.167 589.5,535.833 589.5,535.5C 597.833,535.5 606.167,535.5 614.5,535.5C 614.5,509.833 614.5,484.167 614.5,458.5C 606.167,458.5 597.833,458.5 589.5,458.5 Z"
       id="path27" />
  </g>
  <g
     id="g28">
    <path
       style="opacity:1"
       fill="#2b3e48"
       d="M 353.5,458.5 C 353.5,475.5 353.5,492.5 353.5,509.5C 344.833,509.5 336.167,509.5 327.5,509.5C 327.5,509.167 327.5,508.833 327.5,508.5C 328.493,500.016 328.826,491.349 328.5,482.5C 328.5,474.5 328.5,466.5 328.5,458.5C 336.833,458.5 345.167,458.5 353.5,458.5 Z"
       id="path28" />
  </g>
  <g
     id="g29">
    <path
       style="opacity:1"
       fill="#485f6f"
       d="M 589.5,458.5 C 597.833,458.5 606.167,458.5 614.5,458.5C 614.5,484.167 614.5,509.833 614.5,535.5C 606.167,535.5 597.833,535.5 589.5,535.5C 589.5,509.833 589.5,484.167 589.5,458.5 Z"
       id="path29" />
  </g>
  <g
     id="g31">
    <path
       style="opacity:1"
       fill="#d8b041"
       d="M 589.5,458.5 C 589.5,484.167 589.5,509.833 589.5,535.5C 589.5,535.833 589.5,536.167 589.5,536.5C 589.826,545.017 589.493,553.35 588.5,561.5C 588.5,553.167 588.5,544.833 588.5,536.5C 579.833,536.5 571.167,536.5 562.5,536.5C 562.5,536.167 562.5,535.833 562.5,535.5C 571.167,535.5 579.833,535.5 588.5,535.5C 588.169,509.661 588.502,483.995 589.5,458.5 Z"
       id="path31" />
  </g>
  <g
     id="g32">
    <path
       style="opacity:1"
       fill="#7e7c3e"
       d="M 303.5,483.5 C 311.65,482.507 319.983,482.174 328.5,482.5C 328.826,491.349 328.493,500.016 327.5,508.5C 327.5,500.167 327.5,491.833 327.5,483.5C 319.5,483.5 311.5,483.5 303.5,483.5 Z"
       id="path32" />
  </g>
  <g
     id="g33">
    <path
       style="opacity:1"
       fill="#7d7c45"
       d="M 692.5,482.5 C 700.684,482.174 708.684,482.508 716.5,483.5C 708.833,483.5 701.167,483.5 693.5,483.5C 693.5,491.833 693.5,500.167 693.5,508.5C 692.507,500.016 692.174,491.349 692.5,482.5 Z"
       id="path33" />
  </g>
  <g
     id="g35">
    <path
       style="opacity:1"
       fill="#ddeff8"
       d="M 562.5,535.5 C 562.5,535.833 562.5,536.167 562.5,536.5C 554.167,536.5 545.833,536.5 537.5,536.5C 537.5,527.5 537.5,518.5 537.5,509.5C 545.833,509.5 554.167,509.5 562.5,509.5C 562.5,518.167 562.5,526.833 562.5,535.5 Z"
       id="path35" />
  </g>
  <g
     id="g36">
    <path
       style="opacity:1"
       fill="#6482a0"
       d="M 537.5,536.5 C 545.833,536.5 554.167,536.5 562.5,536.5C 571.167,536.5 579.833,536.5 588.5,536.5C 588.5,544.833 588.5,553.167 588.5,561.5C 571.5,561.5 554.5,561.5 537.5,561.5C 537.5,553.167 537.5,544.833 537.5,536.5 Z"
       id="path36" />
  </g>
  <g
     id="g41">
    <path
       style="opacity:1"
       fill="#2a3c48"
       d="M 430.5,640.5 C 483.833,640.5 537.167,640.5 590.5,640.5C 590.5,649.167 590.5,657.833 590.5,666.5C 582.833,666.5 575.167,666.5 567.5,666.5C 567.167,666.5 566.833,666.5 566.5,666.5C 560.167,666.5 553.833,666.5 547.5,666.5C 522.833,666.5 498.167,666.5 473.5,666.5C 473.167,666.5 472.833,666.5 472.5,666.5C 463.833,666.5 455.167,666.5 446.5,666.5C 441.36,665.512 436.026,665.179 430.5,665.5C 430.5,657.167 430.5,648.833 430.5,640.5 Z"
       id="path41" />
  </g>
  <g
     id="g42">
    <path
       style="opacity:1"
       fill="#2b638c"
       d="M 429.5,640.5 C 429.833,640.5 430.167,640.5 430.5,640.5C 430.5,648.833 430.5,657.167 430.5,665.5C 436.026,665.179 441.36,665.512 446.5,666.5C 440.833,666.5 435.167,666.5 429.5,666.5C 429.5,657.833 429.5,649.167 429.5,640.5 Z"
       id="path42" />
  </g>
  <g
     id="g56"
     style="fill:#0b090a;fill-opacity:1">
    <g
       id="g2"
       style="fill:#0b090a;fill-opacity:1">
      <path
         style="opacity:1;fill:#0b090a;fill-opacity:1"
         fill="#d4a70c"
         d="M 518.5,154.5 C 518.5,169.5 518.5,184.5 518.5,199.5C 511.833,199.5 505.167,199.5 498.5,199.5C 498.5,184.5 498.5,169.5 498.5,154.5C 505.167,153.167 511.833,153.167 518.5,154.5 Z"
         id="path2" />
    </g>
    <g
       id="g19"
       style="fill:#0b090a;fill-opacity:1">
      <path
         style="opacity:1;fill:#0b090a;fill-opacity:1"
         fill="#d1a509"
         d="M 380.5,408.5 C 467.833,408.5 555.167,408.5 642.5,408.5C 642.174,417.017 642.507,425.35 643.5,433.5C 651.833,433.5 660.167,433.5 668.5,433.5C 668.5,441.833 668.5,450.167 668.5,458.5C 668.5,475.5 668.5,492.5 668.5,509.5C 668.5,535.5 668.5,561.5 668.5,587.5C 659.833,587.5 651.167,587.5 642.5,587.5C 642.5,590.833 642.5,594.167 642.5,597.5C 641.683,595.031 641.183,592.365 641,589.5C 640.5,537.501 640.333,485.501 640.5,433.5C 553.833,433.5 467.167,433.5 380.5,433.5C 380.5,425.167 380.5,416.833 380.5,408.5 Z"
         id="path19" />
    </g>
    <g
       id="g21"
       style="fill:#0b090a;fill-opacity:1">
      <path
         style="opacity:1;fill:#0b090a;fill-opacity:1"
         fill="#d1a507"
         d="M 353.5,433.5 C 362.5,433.5 371.5,433.5 380.5,433.5C 380.5,484.833 380.5,536.167 380.5,587.5C 371.5,587.5 362.5,587.5 353.5,587.5C 353.5,561.5 353.5,535.5 353.5,509.5C 353.5,492.5 353.5,475.5 353.5,458.5C 353.5,450.167 353.5,441.833 353.5,433.5 Z"
         id="path21" />
    </g>
    <g
       id="g30"
       style="fill:#0b090a;fill-opacity:1">
      <path
         style="opacity:1;fill:#0b090a;fill-opacity:1"
         fill="#d0a40b"
         d="M 716.5,483.5 C 716.333,526.168 716.5,568.835 717,611.5C 725.749,612.484 734.582,612.817 743.5,612.5C 743.5,638.167 743.5,663.833 743.5,689.5C 735.58,689.815 727.747,689.482 720,688.5C 719.5,680.173 719.334,671.84 719.5,663.5C 711.167,663.5 702.833,663.5 694.5,663.5C 694.5,672.167 694.5,680.833 694.5,689.5C 686.5,689.5 678.5,689.5 670.5,689.5C 670.5,663.833 670.5,638.167 670.5,612.5C 678.42,612.815 686.253,612.482 694,611.5C 694.831,577.331 694.664,543.331 693.5,509.5C 693.5,509.167 693.5,508.833 693.5,508.5C 693.5,500.167 693.5,491.833 693.5,483.5C 701.167,483.5 708.833,483.5 716.5,483.5 Z"
         id="path30" />
    </g>
    <g
       id="g34"
       style="fill:#0b090a;fill-opacity:1">
      <path
         style="opacity:1;fill:#0b090a;fill-opacity:1"
         fill="#cfa40f"
         d="M 303.5,483.5 C 311.5,483.5 319.5,483.5 327.5,483.5C 327.5,491.833 327.5,500.167 327.5,508.5C 327.5,508.833 327.5,509.167 327.5,509.5C 326.502,543.663 326.168,577.996 326.5,612.5C 334.167,612.5 341.833,612.5 349.5,612.5C 350.498,637.995 350.831,663.661 350.5,689.5C 342.248,689.816 334.081,689.482 326,688.5C 325.5,680.173 325.334,671.84 325.5,663.5C 317.167,663.5 308.833,663.5 300.5,663.5C 300.666,671.84 300.5,680.173 300,688.5C 292.253,689.482 284.42,689.815 276.5,689.5C 276.5,663.833 276.5,638.167 276.5,612.5C 285.5,612.5 294.5,612.5 303.5,612.5C 303.5,569.5 303.5,526.5 303.5,483.5 Z"
         id="path34" />
    </g>
    <g
       id="g40"
       style="fill:#0b090a;fill-opacity:1">
      <path
         style="opacity:1;fill:#0b090a;fill-opacity:1"
         fill="#cfa508"
         d="M 380.5,614.5 C 380.5,614.167 380.5,613.833 380.5,613.5C 459.496,614.369 538.496,614.702 617.5,614.5C 617.817,623.085 617.483,631.585 616.5,640C 607.84,640.5 599.173,640.666 590.5,640.5C 537.167,640.5 483.833,640.5 430.5,640.5C 430.167,640.5 429.833,640.5 429.5,640.5C 420.5,640.5 411.5,640.5 402.5,640.5C 402.5,631.833 402.5,623.167 402.5,614.5C 395.167,614.5 387.833,614.5 380.5,614.5 Z"
         id="path40" />
    </g>
    <g
       id="g44"
       style="fill:#0b090a;fill-opacity:1">
      <path
         style="opacity:1;fill:#0b090a;fill-opacity:1"
         fill="#d0a609"
         d="M 547.5,666.5 C 553.833,666.5 560.167,666.5 566.5,666.5C 566.5,708.5 566.5,750.5 566.5,792.5C 560.167,792.5 553.833,792.5 547.5,792.5C 547.5,750.5 547.5,708.5 547.5,666.5 Z"
         id="path44" />
    </g>
    <g
       id="g45"
       style="fill:#0b090a;fill-opacity:1">
      <path
         style="opacity:1;fill:#0b090a;fill-opacity:1"
         fill="#cea409"
         d="M 446.5,666.5 C 455.167,666.5 463.833,666.5 472.5,666.5C 472.5,708.833 472.5,751.167 472.5,793.5C 463.833,793.5 455.167,793.5 446.5,793.5C 446.5,793.167 446.5,792.833 446.5,792.5C 446.5,750.5 446.5,708.5 446.5,666.5 Z"
         id="path45" />
    </g>
  </g>
  <g
     id="g46">
    <path
       style="opacity:1"
       fill="#31454f"
       d="M 566.5,666.5 C 566.833,666.5 567.167,666.5 567.5,666.5C 567.5,708.5 567.5,750.5 567.5,792.5C 573.833,792.5 580.167,792.5 586.5,792.5C 586.5,801.167 586.5,809.833 586.5,818.5C 562.5,818.5 538.5,818.5 514.5,818.5C 514.5,810.167 514.5,801.833 514.5,793.5C 525.679,793.828 536.679,793.495 547.5,792.5C 553.833,792.5 560.167,792.5 566.5,792.5C 566.5,750.5 566.5,708.5 566.5,666.5 Z"
       id="path46" />
  </g>
  <g
     id="g47">
    <path
       style="opacity:1"
       fill="#2b6898"
       d="M 446.5,792.5 C 446.5,792.833 446.5,793.167 446.5,793.5C 442.833,793.5 439.167,793.5 435.5,793.5C 435.5,801.833 435.5,810.167 435.5,818.5C 435.167,818.5 434.833,818.5 434.5,818.5C 434.5,809.833 434.5,801.167 434.5,792.5C 438.5,792.5 442.5,792.5 446.5,792.5 Z"
       id="path47" />
  </g>
  <g
     id="g48">
    <path
       style="opacity:1"
       fill="#2c3f49"
       d="M 446.5,793.5 C 455.167,793.5 463.833,793.5 472.5,793.5C 483.5,793.5 494.5,793.5 505.5,793.5C 505.5,801.833 505.5,810.167 505.5,818.5C 482.167,818.5 458.833,818.5 435.5,818.5C 435.5,810.167 435.5,801.833 435.5,793.5C 439.167,793.5 442.833,793.5 446.5,793.5 Z"
       id="path48" />
  </g>
  <g
     id="g49">
    <path
       style="opacity:1"
       fill="#465e6e"
       d="M 434.5,818.5 C 434.833,818.5 435.167,818.5 435.5,818.5C 458.833,818.5 482.167,818.5 505.5,818.5C 506.568,819.434 507.901,819.768 509.5,819.5C 509.5,835.5 509.5,851.5 509.5,867.5C 475.167,867.5 440.833,867.5 406.5,867.5C 406.5,851.167 406.5,834.833 406.5,818.5C 415.833,818.5 425.167,818.5 434.5,818.5 Z"
       id="path49" />
  </g>
  <g
     id="g50">
    <path
       style="opacity:1"
       fill="#465e6e"
       d="M 547.5,792.5 C 536.679,793.495 525.679,793.828 514.5,793.5C 514.5,801.833 514.5,810.167 514.5,818.5C 538.5,818.5 562.5,818.5 586.5,818.5C 596.167,818.5 605.833,818.5 615.5,818.5C 615.825,834.744 615.491,850.911 614.5,867C 580.168,867.5 545.835,867.667 511.5,867.5C 510.871,850.927 511.538,834.594 513.5,818.5C 513.5,809.833 513.5,801.167 513.5,792.5C 524.833,792.5 536.167,792.5 547.5,792.5 Z"
       id="path50" />
  </g>
  <g
     id="g52">
    <path
       style="opacity:1"
       fill="#696f66"
       d="M 406.5,867.5 C 440.833,867.5 475.167,867.5 509.5,867.5C 510.167,867.5 510.833,867.5 511.5,867.5C 545.835,867.667 580.168,867.5 614.5,867C 615.491,850.911 615.825,834.744 615.5,818.5C 616.499,834.422 616.832,851.089 616.5,868.5C 546.331,868.833 476.331,868.499 406.5,867.5 Z"
       id="path52" />
  </g>
  <g
     id="g57"
     style="shape-rendering:geometricPrecision;text-rendering:geometricPrecision;image-rendering:optimizeQuality;fill-rule:evenodd;clip-rule:evenodd">
    <g
       id="g6">
      <path
         style="opacity:1"
         fill="#6586a8"
         d="M 484.5,330.5 C 476.167,330.5 467.833,330.5 459.5,330.5C 459.5,330.167 459.5,329.833 459.5,329.5C 459.5,321.167 459.5,312.833 459.5,304.5C 450.5,304.5 441.5,304.5 432.5,304.5C 432.5,295.833 432.5,287.167 432.5,278.5C 449.833,278.5 467.167,278.5 484.5,278.5C 484.5,295.833 484.5,313.167 484.5,330.5 Z"
         id="path6" />
    </g>
    <g
       id="g7">
      <path
         style="opacity:1"
         fill="#6586a9"
         d="M 588.5,278.5 C 588.5,295.5 588.5,312.5 588.5,329.5C 579.833,329.5 571.167,329.5 562.5,329.5C 562.5,321.167 562.5,312.833 562.5,304.5C 554.167,304.5 545.833,304.5 537.5,304.5C 537.5,295.833 537.5,287.167 537.5,278.5C 554.5,278.5 571.5,278.5 588.5,278.5 Z"
         id="path7" />
    </g>
    <g
       id="g10">
      <path
         style="opacity:1"
         fill="#dbf0fb"
         d="M 432.5,304.5 C 441.5,304.5 450.5,304.5 459.5,304.5C 459.5,312.833 459.5,321.167 459.5,329.5C 450.833,329.5 442.167,329.5 433.5,329.5C 432.507,321.35 432.174,313.017 432.5,304.5 Z"
         id="path10" />
    </g>
    <path
       style="shape-rendering:geometricPrecision;text-rendering:geometricPrecision;image-rendering:optimizeQuality;fill-rule:evenodd;clip-rule:evenodd;opacity:1"
       fill="#d6eaf6"
       d="M 537.5,304.5 C 545.833,304.5 554.167,304.5 562.5,304.5C 562.5,312.833 562.5,321.167 562.5,329.5C 571.167,329.5 579.833,329.5 588.5,329.5C 580.016,330.493 571.349,330.826 562.5,330.5C 554.167,330.5 545.833,330.5 537.5,330.5C 537.5,321.833 537.5,313.167 537.5,304.5 Z"
       id="path12" />
    <g
       id="g13">
      <path
         style="opacity:1"
         fill="#4d616e"
         d="M 459.5,330.5 C 467.833,330.5 476.167,330.5 484.5,330.5C 501.833,330.5 519.167,330.5 536.5,330.5C 536.833,330.5 537.167,330.5 537.5,330.5C 545.833,330.5 554.167,330.5 562.5,330.5C 562.5,339.167 562.5,347.833 562.5,356.5C 528.167,356.5 493.833,356.5 459.5,356.5C 459.5,347.833 459.5,339.167 459.5,330.5 Z"
         id="path13" />
    </g>
  </g>
</svg>
